<svg width="16" height="16" viewBox="0 0 16 16" fill="none" xmlns="http://www.w3.org/2000/svg">
<path fill-rule="evenodd" clip-rule="evenodd" d="M14.5694 3.22767C14.8119 3.50476 14.7838 3.92594 14.5067 4.16839L9.74676 8.33334L14.5067 12.4983C14.7838 12.7407 14.8119 13.1619 14.5694 13.439C14.327 13.7161 13.9058 13.7442 13.6287 13.5017L8.58206 9.08592C8.12673 8.68751 8.12673 7.97918 8.58206 7.58077L13.6287 3.16496C13.9058 2.9225 14.327 2.95058 14.5694 3.22767Z" fill="#868599"/>
<path fill-rule="evenodd" clip-rule="evenodd" d="M7.32723 3.22767C7.56968 3.50476 7.54161 3.92594 7.26451 4.16839L2.50457 8.33334L7.26451 12.4983C7.54161 12.7407 7.56968 13.1619 7.32723 13.439C7.08477 13.7161 6.6636 13.7442 6.38651 13.5017L1.33987 9.08592C0.884545 8.68751 0.884543 7.97918 1.33987 7.58077L6.38651 3.16496C6.6636 2.9225 7.08477 2.95058 7.32723 3.22767Z" fill="#868599"/>
</svg>
