<svg width="24" height="24" viewBox="0 0 24 24" fill="none" xmlns="http://www.w3.org/2000/svg">
<path fill-rule="evenodd" clip-rule="evenodd" d="M12.7975 3.26396C12.3718 2.91421 11.7636 2.91178 11.3352 3.25814L3.44209 9.63989C2.57834 10.3382 3.06509 11.7501 4.16961 11.7502L4.44685 11.7502V19.8157C4.44685 20.4698 4.96949 21 5.6142 21H9.32361C9.33304 21 9.34244 20.9998 9.35181 20.9996H14.9081C14.9194 20.9996 14.9307 20.9994 14.9419 20.999C14.9567 20.9997 14.9716 21 14.9866 21H18.3664C19.0111 21 19.5337 20.4698 19.5337 19.8158V11.7503H19.8303C20.9303 11.7503 21.4198 10.3481 20.565 9.64581L12.7975 3.26396ZM15.8809 19.0263H17.5882V10.9608C17.5882 10.6048 17.743 10.2855 17.9881 10.0684L12.0589 5.19694L6.01195 10.086C6.24575 10.3025 6.39243 10.6143 6.39243 10.9607V19.0263H8.09861V12.858C8.09861 12.313 8.53414 11.8712 9.0714 11.8712H14.9081C15.4454 11.8712 15.8809 12.313 15.8809 12.858V19.0263ZM10.0442 19.0259V13.8449H13.9354V19.0259H10.0442Z" fill="#575672"/>
</svg>
