<svg width="24" height="24" viewBox="0 0 24 24" fill="none" xmlns="http://www.w3.org/2000/svg">
<path fill-rule="evenodd" clip-rule="evenodd" d="M4.22303 12.7071L7.05146 9.87871L7.07706 9.90431L7.12068 9.94793L7.16417 9.99142L7.20753 10.0348L7.25077 10.078L7.29388 10.1211L7.33686 10.1641L7.37972 10.207L7.42244 10.2497L7.46505 10.2923L7.50752 10.3348L7.54987 10.3771L7.5921 10.4194L7.6342 10.4615L7.67617 10.5034L7.71802 10.5453L7.75974 10.587L7.80134 10.6286L7.84281 10.6701L7.88416 10.7114L7.92538 10.7526L7.96648 10.7937L8.00746 10.8347L8.04831 10.8756L8.08904 10.9163L8.12964 10.9569L8.17012 10.9974L8.21047 11.0377L8.25071 11.078L8.29082 11.1181L8.3308 11.1581L8.37067 11.1979L8.41041 11.2377L8.45002 11.2773L8.46567 11.2929L5.63725 14.1214C4.46567 15.2929 4.46567 17.1924 5.63725 18.364C6.80882 19.5356 8.70832 19.5356 9.87989 18.364L12.7083 15.5356L12.7153 15.5425L12.7398 15.567L12.7642 15.5915L12.7885 15.6158L12.8128 15.64L12.8369 15.6641L12.8609 15.6882L12.8848 15.7121L12.9087 15.7359L12.9324 15.7596L12.956 15.7833L12.9795 15.8068L13.0029 15.8302L13.0263 15.8535L13.0495 15.8767L13.0726 15.8999L13.0956 15.9229L13.1186 15.9458L13.1414 15.9687L13.1641 15.9914L13.1868 16.014L13.2093 16.0366L13.2317 16.059L13.2541 16.0813L13.2763 16.1036L13.2985 16.1257L13.3205 16.1478L13.3425 16.1697L13.3643 16.1916L13.3861 16.2133L13.4077 16.235L13.4293 16.2565L13.4508 16.278L13.4721 16.2994L13.4934 16.3207L13.5146 16.3418L13.5357 16.3629L13.5567 16.3839L13.5775 16.4048L13.5983 16.4256L13.619 16.4463L13.6397 16.4669L13.6602 16.4874L13.6806 16.5078L13.7009 16.5282L13.7211 16.5484L13.7413 16.5685L13.7613 16.5886L13.7813 16.6085L13.8011 16.6284L13.8209 16.6481L13.8405 16.6678L13.8601 16.6874L13.8796 16.7069L13.899 16.7262L13.9183 16.7455L13.9375 16.7647L13.9566 16.7839L13.9756 16.8029L13.9945 16.8218L14.0134 16.8406L14.0321 16.8594L14.0508 16.878L14.0693 16.8966L14.0878 16.9151L14.1062 16.9334L14.1225 16.9498L11.2941 19.7782C9.34148 21.7308 6.17566 21.7308 4.22303 19.7782C2.27041 17.8256 2.27041 14.6598 4.22303 12.7071ZM18.3652 5.63607C19.5367 6.80765 19.5367 8.70714 18.3652 9.87871L15.5367 12.7071L15.5437 12.7141L15.5682 12.7386L15.5926 12.763L15.617 12.7874L15.6412 12.8116L15.6653 12.8357L15.6893 12.8597L15.7133 12.8837L15.7371 12.9075L15.7608 12.9312L15.7844 12.9548L15.8079 12.9783L15.8314 13.0018L15.8547 13.0251L15.8779 13.0483L15.901 13.0714L15.9241 13.0945L15.947 13.1174L15.9698 13.1402L15.9926 13.163L16.0152 13.1856L16.0377 13.2081L16.0602 13.2306L16.0825 13.2529L16.1047 13.2751L16.1269 13.2973L16.1489 13.3193L16.1709 13.3413L16.1927 13.3631L16.2145 13.3849L16.2362 13.4066L16.2577 13.4281L16.2792 13.4496L16.3006 13.471L16.3218 13.4922L16.343 13.5134L16.3641 13.5345L16.3851 13.5555L16.406 13.5764L16.4268 13.5972L16.4475 13.6179L16.4681 13.6385L16.4886 13.659L16.509 13.6794L16.5293 13.6997L16.5496 13.72L16.5697 13.7401L16.5897 13.7601L16.6097 13.7801L16.6295 13.7999L16.6493 13.8197L16.669 13.8394L16.6885 13.8589L16.708 13.8784L16.7274 13.8978L16.7467 13.9171L16.7659 13.9363L16.785 13.9554L16.804 13.9744L16.823 13.9934L16.8418 14.0122L16.8605 14.0309L16.8792 14.0496L16.8978 14.0682L16.9162 14.0866L16.9346 14.105L16.951 14.1214L19.7794 11.2929C21.732 9.34031 21.732 6.17448 19.7794 4.22186C17.8268 2.26924 14.6609 2.26924 12.7083 4.22186L9.87989 7.05029L9.90549 7.07589L9.94911 7.11951L9.9926 7.163L10.036 7.20636L10.0792 7.2496L10.1223 7.2927L10.1653 7.33569L10.2081 7.37854L10.2509 7.42127L10.2935 7.46387L10.336 7.50635L10.3783 7.5487L10.4205 7.59093L10.4626 7.63302L10.5046 7.675L10.5464 7.71685L10.5882 7.75857L10.6298 7.80017L10.6712 7.84164L10.7126 7.88299L10.7538 7.92421L10.7949 7.96531L10.8359 8.00629L10.8767 8.04714L10.9175 8.08786L10.9581 8.12847L10.9985 8.16894L11.0389 8.2093L11.0791 8.24953L11.1192 8.28964L11.1592 8.32963L11.1991 8.36949L11.2388 8.40923L11.2785 8.44885L11.2941 8.4645L14.1225 5.63607C15.2941 4.4645 17.1936 4.4645 18.3652 5.63607ZM8.46567 14.1214C8.07515 14.5119 8.07515 15.145 8.46567 15.5356C8.8562 15.9261 9.48936 15.9261 9.87989 15.5356L15.5367 9.87871C15.9273 9.48819 15.9273 8.85503 15.5367 8.4645C15.1462 8.07398 14.5131 8.07398 14.1225 8.4645L8.46567 14.1214Z" fill="#575672"/>
</svg>
