<svg width="24" height="24" viewBox="0 0 24 24" fill="none" xmlns="http://www.w3.org/2000/svg">
<path fill-rule="evenodd" clip-rule="evenodd" d="M21 5C21 4.44772 20.5523 4 20 4H4C3.44772 4 3 4.44772 3 5C3 5.55228 3.44772 6 4 6H20C20.5523 6 21 5.55228 21 5ZM21 8.5C21 7.94772 20.5523 7.5 20 7.5H10C9.44771 7.5 9 7.94772 9 8.5C9 9.05228 9.44771 9.5 10 9.5H20C20.5523 9.5 21 9.05228 21 8.5ZM20 11C20.5523 11 21 11.4477 21 12C21 12.5523 20.5523 13 20 13H4C3.44772 13 3 12.5523 3 12C3 11.4477 3.44772 11 4 11H20ZM21 15.5C21 14.9477 20.5523 14.5 20 14.5H10C9.44771 14.5 9 14.9477 9 15.5C9 16.0523 9.44771 16.5 10 16.5H20C20.5523 16.5 21 16.0523 21 15.5ZM20 18C20.5523 18 21 18.4477 21 19C21 19.5523 20.5523 20 20 20H4C3.44772 20 3 19.5523 3 19C3 18.4477 3.44772 18 4 18H20Z" fill="#575672"/>
</svg>
