<svg width="24" height="24" viewBox="0 0 24 24" fill="none" xmlns="http://www.w3.org/2000/svg">
<path fill-rule="evenodd" clip-rule="evenodd" d="M3 5C3 4.44772 3.44772 4 4 4H20C20.5523 4 21 4.44772 21 5C21 5.55228 20.5523 6 20 6H4C3.44772 6 3 5.55228 3 5ZM3 8.5C3 7.94772 3.44772 7.5 4 7.5H20C20.5523 7.5 21 7.94772 21 8.5C21 9.05228 20.5523 9.5 20 9.5H4C3.44772 9.5 3 9.05228 3 8.5ZM4 11C3.44772 11 3 11.4477 3 12C3 12.5523 3.44772 13 4 13H20C20.5523 13 21 12.5523 21 12C21 11.4477 20.5523 11 20 11H4ZM3 15.5C3 14.9477 3.44772 14.5 4 14.5H20C20.5523 14.5 21 14.9477 21 15.5C21 16.0523 20.5523 16.5 20 16.5H4C3.44772 16.5 3 16.0523 3 15.5ZM4 18C3.44772 18 3 18.4477 3 19C3 19.5523 3.44772 20 4 20H20C20.5523 20 21 19.5523 21 19C21 18.4477 20.5523 18 20 18H4Z" fill="#575672"/>
</svg>
