<svg width="24" height="24" viewBox="0 0 24 24" fill="none" xmlns="http://www.w3.org/2000/svg">
<path fill-rule="evenodd" clip-rule="evenodd" d="M11.5258 21C12.4144 21 13.153 20.3351 13.2542 19.4853C13.2673 19.3757 13.1765 19.2857 13.066 19.2857H9.98561C9.87515 19.2857 9.78437 19.3757 9.7973 19.4854C9.89747 20.3351 10.6291 21 11.5258 21ZM16.8217 14.5714V10.2857C16.8217 7.65429 15.3948 5.45143 12.9062 4.86857V4.28571C12.9062 3.57429 12.3233 3 11.6011 3C10.8789 3 10.2959 3.57429 10.2959 4.28571V4.86857C7.79869 5.45143 6.38041 7.64571 6.38041 10.2857V14.5714L5.25797 15.6771C4.7098 16.2171 5.09265 17.1429 5.86705 17.1429H17.3264C18.1008 17.1429 18.4923 16.2171 17.9442 15.6771L16.8217 14.5714Z" stroke="#575672" stroke-width="1.4"/>
</svg>
