<svg width="24" height="24" viewBox="0 0 24 24" fill="#575672" xmlns="http://www.w3.org/2000/svg">
<rect width="24" height="24" fill="white"/>
<path fill-rule="evenodd" clip-rule="evenodd" d="M12.4882 19.5286C12.1245 19.113 12.1666 18.4812 12.5822 18.1175L19.7221 11.8701L12.5822 5.62268C12.1666 5.259 12.1245 4.62724 12.4882 4.2116C12.8518 3.79596 13.4836 3.75385 13.8992 4.11753L21.4692 10.7412C22.1522 11.3389 22.1522 12.4013 21.4692 12.999L13.8992 19.6227C13.4836 19.9864 12.8518 19.9442 12.4882 19.5286Z" fill="currentColor"/>
<path fill-rule="evenodd" clip-rule="evenodd" d="M2.74744 19.5286C2.38375 19.113 2.42587 18.4812 2.84151 18.1175L9.98142 11.8701L2.84151 5.62268C2.42587 5.259 2.38376 4.62724 2.74744 4.2116C3.11112 3.79596 3.74288 3.75385 4.15852 4.11753L11.7285 10.7412C12.4115 11.3389 12.4115 12.4013 11.7285 12.999L4.15852 19.6227C3.74288 19.9864 3.11112 19.9442 2.74744 19.5286Z" fill="currentColor"/>
</svg>
