<svg width="16" height="16" viewBox="0 0 16 16" fill="none" xmlns="http://www.w3.org/2000/svg">
<path fill-rule="evenodd" clip-rule="evenodd" d="M1.43058 12.7723C1.18813 12.4952 1.21621 12.0741 1.4933 11.8316L6.25324 7.66666L1.4933 3.50171C1.21621 3.25926 1.18813 2.83808 1.43058 2.56099C1.67304 2.2839 2.09421 2.25582 2.3713 2.49827L7.41794 6.91408C7.87327 7.31249 7.87327 8.02082 7.41794 8.41923L2.3713 12.835C2.09421 13.0775 1.67304 13.0494 1.43058 12.7723Z" fill="#868599"/>
<path fill-rule="evenodd" clip-rule="evenodd" d="M8.67277 12.7723C8.43032 12.4952 8.45839 12.0741 8.73549 11.8316L13.4954 7.66666L8.73549 3.50171C8.45839 3.25926 8.43032 2.83808 8.67277 2.56099C8.91523 2.2839 9.3364 2.25582 9.61349 2.49827L14.6601 6.91408C15.1155 7.31249 15.1155 8.02082 14.6601 8.41923L9.61349 12.835C9.3364 13.0775 8.91523 13.0494 8.67277 12.7723Z" fill="#868599"/>
</svg>
