<svg width="24" height="24" viewBox="0 0 24 24" fill="#575672" xmlns="http://www.w3.org/2000/svg">
<rect width="24" height="24" fill="white"/>
<path fill-rule="evenodd" clip-rule="evenodd" d="M20.734 4.21163C21.0977 4.62726 21.0556 5.25903 20.6399 5.62271L13.5 11.8701L20.6399 18.1176C21.0556 18.4812 21.0977 19.113 20.734 19.5286C20.3703 19.9443 19.7386 19.9864 19.3229 19.6227L11.753 12.999C11.07 12.4014 11.07 11.3389 11.753 10.7413L19.3229 4.11755C19.7386 3.75387 20.3703 3.79599 20.734 4.21163Z" fill="currentColor"/>
<path fill-rule="evenodd" clip-rule="evenodd" d="M10.9933 4.21163C11.357 4.62726 11.3149 5.25903 10.8992 5.62271L3.7593 11.8701L10.8992 18.1176C11.3149 18.4812 11.357 19.113 10.9933 19.5286C10.6296 19.9443 9.99784 19.9864 9.5822 19.6227L2.01225 12.999C1.32926 12.4014 1.32926 11.3389 2.01225 10.7413L9.5822 4.11755C9.99784 3.75387 10.6296 3.79599 10.9933 4.21163Z" fill="currentColor"/>
</svg>
