<svg width="24" height="24" viewBox="0 0 24 24" fill="none" xmlns="http://www.w3.org/2000/svg">
<path fill-rule="evenodd" clip-rule="evenodd" d="M8 3C8.55228 3 9 3.44772 9 4V5H15V4C15 3.44772 15.4477 3 16 3C16.5523 3 17 3.44772 17 4V5C18.6569 5 20 6.34315 20 8V12V18C20 19.6569 18.6569 21 17 21H7C5.34315 21 4 19.6569 4 18V12V8C4 6.34315 5.34315 5 7 5V4C7 3.44772 7.44772 3 8 3ZM15 7V8C15 8.55228 15.4477 9 16 9C16.5523 9 17 8.55228 17 8V7C17.5523 7 18 7.44772 18 8V11H6V8C6 7.44772 6.44772 7 7 7V8C7 8.55228 7.44772 9 8 9C8.55228 9 9 8.55228 9 8V7H15ZM18 13V18C18 18.5523 17.5523 19 17 19H7C6.44772 19 6 18.5523 6 18V13H18Z" fill="#575672"/>
</svg>
