<svg width="16" height="16" viewBox="0 0 16 16" fill="none" xmlns="http://www.w3.org/2000/svg">
<rect x="1" y="1" width="14" height="14" rx="3" fill="#CFCFD7" stroke="#CFCFD7" stroke-width="2"/>
<g clip-path="url(#clip0_7714_14446)">
<path d="M6.59502 12.483C6.48047 12.5982 6.32419 12.6625 6.16185 12.6625C5.99951 12.6625 5.84322 12.5982 5.72868 12.483L2.26926 9.02305C1.91025 8.66404 1.91025 8.08188 2.26926 7.72354L2.70243 7.29026C3.06155 6.93125 3.64304 6.93125 4.00205 7.29026L6.16185 9.45016L11.9979 3.61399C12.357 3.25497 12.9391 3.25497 13.2975 3.61399L13.7307 4.04727C14.0897 4.40628 14.0897 4.98833 13.7307 5.34678L6.59502 12.483Z" fill="#FBFCFF"/>
</g>
<defs>
<clipPath id="clip0_7714_14446">
<rect width="12" height="12" fill="white" transform="translate(2 2)"/>
</clipPath>
</defs>
</svg>
