<svg width="24" height="24" viewBox="0 0 24 24" fill="none" xmlns="http://www.w3.org/2000/svg">
<path fill-rule="evenodd" clip-rule="evenodd" d="M9.7 3C8.87157 3 8.2 3.67157 8.2 4.5V6H7H5C4.44772 6 4 6.44772 4 7C4 7.55228 4.44772 8 5 8V18C5 19.6569 6.34315 21 8 21H16C17.6569 21 19 19.6569 19 18V8C19.5523 8 20 7.55228 20 7C20 6.44772 19.5523 6 19 6H15.8V4.5C15.8 3.67157 15.1284 3 14.3 3H9.7ZM17 8H14.3H9.7H7V18C7 18.5523 7.44772 19 8 19H16C16.5523 19 17 18.5523 17 18V8ZM13.8 6H10.2V5H13.8V6ZM10 11C10.5523 11 11 11.4477 11 12V15C11 15.5523 10.5523 16 10 16C9.44772 16 9 15.5523 9 15V12C9 11.4477 9.44772 11 10 11ZM15 12C15 11.4477 14.5523 11 14 11C13.4477 11 13 11.4477 13 12V15C13 15.5523 13.4477 16 14 16C14.5523 16 15 15.5523 15 15V12Z" fill="#575672"/>
</svg>
