<svg width="24" height="24" viewBox="0 0 24 24" fill="none" xmlns="http://www.w3.org/2000/svg">
<path fill-rule="evenodd" clip-rule="evenodd" d="M13 11.9194V3C13 2.44771 12.5523 2 12 2C11.4477 2 11 2.44771 11 3V11.9194L7.62469 9.21913C7.19343 8.87412 6.56414 8.94404 6.21913 9.37531C5.87412 9.80657 5.94404 10.4359 6.37531 10.7809L11.063 14.531C11.1213 14.5777 11.1823 14.6194 11.2453 14.6561C11.4287 14.8668 11.6988 15 12 15C12.3012 15 12.5713 14.8668 12.7547 14.6561C12.8177 14.6194 12.8787 14.5777 12.937 14.531L17.6247 10.7809C18.056 10.4359 18.1259 9.80657 17.7809 9.37531C17.4359 8.94404 16.8066 8.87412 16.3753 9.21913L13 11.9194ZM4 14C4.55228 14 5 14.4477 5 15V19H19V15C19 14.4477 19.4477 14 20 14C20.5523 14 21 14.4477 21 15V19.5C21 20.3284 20.3284 21 19.5 21H4.5C3.67157 21 3 20.3284 3 19.5V15C3 14.4477 3.44772 14 4 14Z" fill="#575672"/>
</svg>
