<svg width="24" height="24" viewBox="0 0 24 24" fill="none" xmlns="http://www.w3.org/2000/svg">
<path fill-rule="evenodd" clip-rule="evenodd" d="M13.9422 5.83648C13.9422 5.36845 14.3251 5 14.7838 5L18.1584 5C18.6171 5 19 5.36845 19 5.83648V9.16478C19 9.63281 18.6171 10.0013 18.1584 10.0013C17.6997 10.0013 17.3168 9.63281 17.3168 9.16478V7.845L13.104 12L17.3168 16.155V14.8352C17.3168 14.3672 17.6997 13.9987 18.1584 13.9987C18.6171 13.9987 19 14.3672 19 14.8352V18.1635C19 18.6316 18.6171 19 18.1584 19H14.7838C14.3251 19 13.9422 18.6316 13.9422 18.1635C13.9422 17.6955 14.3251 17.327 14.7838 17.327H16.1154L11.9091 13.1784L7.88458 17.1478H9.21622C9.67494 17.1478 10.0578 17.5162 10.0578 17.9842C10.0578 18.4523 9.67494 18.8207 9.21622 18.8207H5.84162C5.38291 18.8207 5 18.4523 5 17.9842L5 14.6559C5 14.1879 5.38291 13.8195 5.84162 13.8195C6.30034 13.8195 6.68325 14.1879 6.68325 14.6559L6.68324 15.9757L10.7143 12L6.68325 8.02427L6.68325 9.34405C6.68325 9.81209 6.30034 10.1805 5.84162 10.1805C5.38291 10.1805 5 9.81209 5 9.34405L5 6.01575C5 5.54772 5.38291 5.17927 5.84162 5.17927L9.21623 5.17927C9.67494 5.17927 10.0578 5.54772 10.0578 6.01575C10.0578 6.48378 9.67494 6.85223 9.21623 6.85223L7.88458 6.85223L11.9091 10.8216L16.1154 6.67296L14.7838 6.67296C14.3251 6.67296 13.9422 6.30451 13.9422 5.83648Z" fill="#575672"/>
</svg>
