<svg width="24" height="24" viewBox="0 0 24 24" fill="none" xmlns="http://www.w3.org/2000/svg">
<path fill-rule="evenodd" clip-rule="evenodd" d="M20.0291 11.7758C20.0292 11.7758 20.0284 11.7783 20.0264 11.7836C20.028 11.7785 20.029 11.7758 20.0291 11.7758ZM19.4332 11.387C19.6536 11.6364 19.8078 11.8427 19.908 12C19.8078 12.1573 19.6536 12.3636 19.4332 12.613C18.8899 13.2276 18.0863 13.9449 17.1409 14.633C16.1997 15.3181 15.1765 15.9318 14.219 16.3661C13.2246 16.8172 12.4642 17 12 17C11.5358 17 10.7754 16.8172 9.78101 16.3661C8.82352 15.9318 7.80027 15.3181 6.85907 14.633C5.91373 13.9449 5.11011 13.2276 4.56679 12.613C4.3464 12.3636 4.19217 12.1573 4.09204 12C4.19217 11.8427 4.3464 11.6364 4.56679 11.387C5.11011 10.7724 5.91373 10.0551 6.85907 9.36698C7.80027 8.68187 8.82352 8.06821 9.78101 7.63387C10.7754 7.18277 11.5358 7 12 7C12.4642 7 13.2246 7.18277 14.219 7.63387C15.1765 8.06821 16.1997 8.68187 17.1409 9.36698C18.0863 10.0551 18.8899 10.7724 19.4332 11.387ZM3.97088 11.7758C3.971 11.7758 3.97203 11.7784 3.97364 11.7836C3.97158 11.7783 3.97077 11.7758 3.97088 11.7758ZM3.97088 12.2242C3.97077 12.2242 3.97158 12.2217 3.97364 12.2164C3.97203 12.2216 3.971 12.2242 3.97088 12.2242ZM20.0286 12.2225C20.0282 12.2212 20.0275 12.2192 20.0264 12.2164C20.0273 12.2194 20.028 12.2215 20.0285 12.2228C20.0289 12.2237 20.0291 12.2242 20.0291 12.2242C20.0292 12.2242 20.029 12.2237 20.0286 12.2225ZM22 12C22 14 15.5145 19 12 19C8.48546 19 2 14 2 12C2 10 8.48546 5 12 5C15.5145 5 22 10 22 12ZM14 12C14 13.1046 13.1046 14 12 14C10.8954 14 10 13.1046 10 12C10 10.8954 10.8954 10 12 10C13.1046 10 14 10.8954 14 12ZM16 12C16 14.2091 14.2091 16 12 16C9.79086 16 8 14.2091 8 12C8 9.79086 9.79086 8 12 8C14.2091 8 16 9.79086 16 12Z" fill="#575672"/>
</svg>
