<svg width="24" height="24" viewBox="0 0 24 24" fill="none" xmlns="http://www.w3.org/2000/svg">
<path fill-rule="evenodd" clip-rule="evenodd" d="M12.8836 2.66034C12.5075 1.95306 11.4939 1.95307 11.1178 2.66034L8.54895 7.49064C8.39687 7.7766 8.11572 7.97119 7.79453 8.0128L2.89995 8.64694C2.02835 8.75986 1.71589 9.8615 2.39841 10.4152L6.16571 13.4716C6.45765 13.7085 6.59209 14.089 6.51371 14.4567L5.40528 19.6556C5.22638 20.4948 6.11788 21.1548 6.86823 20.7387L11.5158 18.1617C11.8174 17.9944 12.184 17.9944 12.4856 18.1617L17.1332 20.7387C17.8835 21.1548 18.775 20.4948 18.5961 19.6556L17.4877 14.4567C17.4093 14.089 17.5437 13.7085 17.8357 13.4716L21.603 10.4152C22.2855 9.8615 21.973 8.75986 21.1014 8.64694L16.2069 8.0128C15.8857 7.97119 15.6045 7.7766 15.4524 7.49064L12.8836 2.66034ZM14.2509 9.75936L12.0007 5.00017L9.75052 9.75936L5.00062 10.2002L8.90063 13.0318L7.6255 18.0002L12.0007 15.3852L16.3756 18.0002L15.1008 13.0318L19.0006 10.2002L14.2509 9.75936Z" fill="#575672"/>
</svg>
