<svg width="24" height="24" viewBox="0 0 24 24" fill="none" xmlns="http://www.w3.org/2000/svg">
<path fill-rule="evenodd" clip-rule="evenodd" d="M18.6324 7.52336C17.6815 5.82375 15.4086 5.51288 14.0535 6.89707L12.7016 8.2779C12.5155 8.46797 12.2631 8.57475 11.9999 8.57475C11.7367 8.57475 11.4844 8.46797 11.2983 8.2779L9.94641 6.89712C8.59123 5.51293 6.3184 5.82384 5.36757 7.52347C4.73174 8.66001 4.89976 10.0878 5.78115 11.0381L11.9999 17.7429L18.2188 11.0382C19.1003 10.0878 19.2683 8.65996 18.6324 7.52336ZM12.6502 5.46375C14.9306 3.13448 18.7553 3.6576 20.3554 6.51765C21.4255 8.43028 21.1428 10.8331 19.6595 12.4322L13.0804 19.5253C12.4933 20.1582 11.5065 20.1582 10.9194 19.5253L4.34045 12.4321C2.85726 10.833 2.57453 8.43037 3.64448 6.51781C5.24453 3.65771 9.06922 3.13452 11.3497 5.4638L11.9999 6.12793L12.6502 5.46375Z" fill="#575672"/>
</svg>
