<svg width="24" height="24" viewBox="0 0 24 24" fill="none" xmlns="http://www.w3.org/2000/svg">
<path fill-rule="evenodd" clip-rule="evenodd" d="M13.9095 6.53528L15.8684 4.47066L19.4499 8.05247L17.506 10.0809L13.9095 6.53528ZM12.5326 7.9864L5.68295 15.2056C5.5343 15.3622 5.44037 15.5628 5.41519 15.7773L4.98648 19.4301L8.51392 19.1095C8.75419 19.0876 8.97846 18.9796 9.14539 18.8054L16.1221 11.5251L12.5326 7.9864ZM16.9198 2.69352C16.3231 2.09678 15.3518 2.10951 14.7709 2.72168L3.88863 14.1909C3.66566 14.4259 3.52476 14.7268 3.487 15.0485L2.92829 19.809C2.81723 20.7553 3.60502 21.564 4.55386 21.4777L9.2539 21.0504C9.6143 21.0177 9.95071 20.8557 10.2011 20.5944L21.2325 9.08287C21.7971 8.49375 21.7872 7.56142 21.2102 6.98443L16.9198 2.69352Z" fill="#575672"/>
</svg>
