<svg width="24" height="24" viewBox="0 0 24 24" fill="none" xmlns="http://www.w3.org/2000/svg">
<path fill-rule="evenodd" clip-rule="evenodd" d="M11.6707 19.6C12.5507 19.6 13.2707 18.88 13.2707 18H10.0707C10.0707 18.88 10.7827 19.6 11.6707 19.6ZM16.4707 14.8V10.8C16.4707 8.344 15.1587 6.288 12.8707 5.744V5.2C12.8707 4.536 12.3347 4 11.6707 4C11.0067 4 10.4707 4.536 10.4707 5.2V5.744C8.17474 6.288 6.87074 8.336 6.87074 10.8V14.8L5.83874 15.832C5.33474 16.336 5.68674 17.2 6.39874 17.2H16.9347C17.6467 17.2 18.0067 16.336 17.5027 15.832L16.4707 14.8Z" fill="#C3CAD9"/>
</svg>
