<svg width="24" height="24" viewBox="0 0 24 24" fill="none" xmlns="http://www.w3.org/2000/svg">
<path fill-rule="evenodd" clip-rule="evenodd" d="M5 14.8386V5H19V11.9606L17.5344 10.5966C16.9433 10.0465 16.0228 10.063 15.4518 10.634L10.9334 15.1524L8.53099 13.0702C7.90705 12.5295 6.96342 12.5946 6.41973 13.216L5 14.8386ZM21 4.5V14.2548V14.2604V19.5C21 20.3284 20.3284 21 19.5 21H15.0066H14.9926H4.5C3.67157 21 3 20.3284 3 19.5V17.5048V17.4944V4.5C3 3.67157 3.67157 3 4.5 3H19.5C20.3284 3 21 3.67157 21 4.5ZM16.5249 12.3893L19 14.6928V19H15.373L12.4487 16.4656L16.5249 12.3893ZM12.3193 19H5V17.8757L7.59719 14.9075L12.3193 19ZM12 9C12 9.55228 11.5523 10 11 10C10.4477 10 10 9.55228 10 9C10 8.44772 10.4477 8 11 8C11.5523 8 12 8.44772 12 9ZM14 9C14 10.6569 12.6569 12 11 12C9.34315 12 8 10.6569 8 9C8 7.34315 9.34315 6 11 6C12.6569 6 14 7.34315 14 9Z" fill="#575672"/>
</svg>
