<svg width="24" height="24" viewBox="0 0 24 24" fill="none" xmlns="http://www.w3.org/2000/svg">
<path fill-rule="evenodd" clip-rule="evenodd" d="M5.20711 4.7928L4.5 4.08569L3.08579 5.49991L3.79289 6.20701L5.4827 7.89682C3.51776 9.36279 2 11.0324 2 11.9999C2 13.9999 8.48546 18.9999 12 18.9999C13.0092 18.9999 14.2633 18.5877 15.5385 17.9526L16.7929 19.207L17.5 19.9141L18.9142 18.4999L18.2071 17.7928L5.20711 4.7928ZM14.034 16.4481L13.3517 15.7658C12.9294 15.9173 12.4744 15.9999 12 15.9999C9.79086 15.9999 8 14.209 8 11.9999C8 11.5255 8.08257 11.0705 8.23413 10.6483L6.91338 9.3275C6.89525 9.3406 6.87714 9.35373 6.85907 9.36689C5.91373 10.055 5.11011 10.7723 4.56679 11.387C4.3464 11.6363 4.19217 11.8426 4.09204 11.9999C4.19217 12.1572 4.3464 12.3635 4.56679 12.6129C5.11011 13.2275 5.91373 13.9448 6.85907 14.6329C7.80027 15.318 8.82352 15.9317 9.78101 16.366C10.7754 16.8171 11.5358 16.9999 12 16.9999C12.435 16.9999 13.13 16.8394 14.034 16.4481ZM11.5303 13.9445C10.803 13.7694 10.2305 13.1969 10.0555 12.4696L11.5303 13.9445ZM10.6483 8.23404L12.4697 10.0554C13.197 10.2304 13.7695 10.8029 13.9445 11.5302L15.7659 13.3516C15.9174 12.9294 16 12.4743 16 11.9999C16 9.79077 14.2091 7.99991 12 7.99991C11.5256 7.99991 11.0706 8.08248 10.6483 8.23404ZM17.1409 14.6329L17.0866 14.6723L18.5173 16.103C20.4822 14.637 22 12.9674 22 11.9999C22 9.99991 15.5145 4.99991 12 4.99991C10.9908 4.99991 9.73673 5.41215 8.46155 6.04724L9.96605 7.55174C10.87 7.16039 11.565 6.99991 12 6.99991C12.4642 6.99991 13.2246 7.18268 14.219 7.63377C15.1765 8.06811 16.1997 8.68178 17.1409 9.36689C18.0863 10.055 18.8899 10.7723 19.4332 11.387C19.6536 11.6363 19.8078 11.8426 19.908 11.9999C19.8078 12.1572 19.6536 12.3635 19.4332 12.6129C18.8899 13.2275 18.0863 13.9448 17.1409 14.6329ZM20.028 11.7792C20.0289 11.7768 20.0292 11.7757 20.0291 11.7757C20.029 11.7757 20.028 11.7784 20.0264 11.7835C20.027 11.7818 20.0276 11.7803 20.028 11.7792ZM3.97088 11.7757C3.971 11.7757 3.97203 11.7784 3.97364 11.7835C3.97158 11.7782 3.97077 11.7757 3.97088 11.7757ZM3.97088 12.2241C3.97077 12.2241 3.97158 12.2216 3.97364 12.2163C3.97203 12.2215 3.971 12.2241 3.97088 12.2241ZM20.0286 12.2224L20.0264 12.2163L20.0285 12.2227L20.0291 12.2241C20.0291 12.2241 20.0291 12.2241 20.0291 12.2239L20.0286 12.2224Z" fill="#575672"/>
</svg>
