<svg width="24" height="24" viewBox="0 0 24 24" fill="none" xmlns="http://www.w3.org/2000/svg">
<path fill-rule="evenodd" clip-rule="evenodd" d="M17.3316 5.01842C16.299 4.07964 14.7194 4.08798 13.6967 5.03762L6.44926 11.7674C4.56473 13.5173 4.55762 16.4977 6.43377 18.2566C8.15053 19.866 10.8251 19.8555 12.5292 18.2326L19.3085 11.7761C19.7085 11.3952 20.3414 11.4106 20.7223 11.8105C21.1032 12.2105 21.0878 12.8435 20.6879 13.2243L13.9085 19.6809C11.4364 22.0352 7.55639 22.0505 5.06589 19.7157C2.34416 17.164 2.35447 12.8404 5.08836 10.3018L12.3358 3.57203C14.1199 1.91537 16.8755 1.90082 18.677 3.53854C20.7193 5.39516 20.7227 8.60584 18.6845 10.4669L11.4272 17.093C10.3304 18.0945 8.63986 18.0561 7.58962 17.0058C6.47988 15.8961 6.50903 14.0881 7.65398 13.0147L14.3143 6.77067C14.7172 6.39294 15.35 6.41335 15.7277 6.81626C16.1055 7.21917 16.085 7.85201 15.6821 8.22974L9.02186 14.4737C8.70117 14.7744 8.69301 15.2808 9.00384 15.5916C9.298 15.8858 9.7715 15.8965 10.0787 15.616L17.3359 8.9899C18.5043 7.92312 18.5023 6.08268 17.3316 5.01842Z" fill="#575672"/>
</svg>
