<svg width="24" height="24" viewBox="0 0 24 24" fill="none" xmlns="http://www.w3.org/2000/svg">
<path fill-rule="evenodd" clip-rule="evenodd" d="M18 9.80488C18 12.8069 16.1345 15.5126 12 19.3132C7.86547 15.5126 6 12.8069 6 9.80488C6 6.6452 8.63945 4 12 4C15.3606 4 18 6.6452 18 9.80488ZM20 9.80488C20 13.9228 17.2621 17.2958 12.6582 21.4166C12.284 21.7516 11.716 21.7516 11.3418 21.4166C6.73787 17.2958 4 13.9228 4 9.80488C4 5.49436 7.58172 2 12 2C16.4183 2 20 5.49436 20 9.80488ZM14 10C14 11.1046 13.1046 12 12 12C10.8954 12 10 11.1046 10 10C10 8.89543 10.8954 8 12 8C13.1046 8 14 8.89543 14 10ZM16 10C16 12.2091 14.2091 14 12 14C9.79086 14 8 12.2091 8 10C8 7.79086 9.79086 6 12 6C14.2091 6 16 7.79086 16 10Z" fill="#575672"/>
</svg>
