<svg width="24" height="24" viewBox="0 0 24 24" fill="none" xmlns="http://www.w3.org/2000/svg">
<path fill-rule="evenodd" clip-rule="evenodd" d="M11.0011 4.51472C11.0011 3.96243 11.4488 3.51472 12.0011 3.51472C12.5533 3.51472 13.0011 3.96243 13.0011 4.51472L13.0011 11H19.4863C20.0386 11 20.4863 11.4477 20.4863 12C20.4863 12.5523 20.0386 13 19.4863 13H13.0011L13.0011 19.4853C13.0011 20.0376 12.5533 20.4853 12.0011 20.4853C11.4488 20.4853 11.0011 20.0376 11.0011 19.4853L11.0011 13L4.51578 13C3.96349 13 3.51578 12.5523 3.51578 12C3.51578 11.4477 3.96349 11 4.51578 11L11.0011 11L11.0011 4.51472Z" fill="#575672"/>
</svg>
