<svg width="24" height="24" viewBox="0 0 24 24" fill="none" xmlns="http://www.w3.org/2000/svg">
<path d="M9.39799 4.92251L10.4374 3.42882C10.6243 3.16017 10.9309 3 11.2582 3H12.6429C12.969 3 13.2746 3.15898 13.4618 3.426L14.4898 4.89256M9.39799 4.92251C9.10234 5.34431 8.6109 5.55099 8.08929 5.51415M9.39799 4.92251C9.1009 5.3433 8.6109 5.55271 8.08929 5.51415M8.08929 5.51415L6.24763 5.39853C5.92679 5.37838 5.61582 5.51372 5.4119 5.76225L4.53892 6.8262C4.32272 7.0897 4.25561 7.44517 4.36088 7.76935L4.89497 9.4142M4.89497 9.4142C4.97077 9.65997 4.98047 9.92327 4.92622 10.1719M4.89497 9.4142C4.97185 9.65953 4.98119 9.9223 4.92586 10.1745M4.92622 10.1719C4.87126 10.4177 4.75343 10.6497 4.57848 10.8376M4.92622 10.1719L4.92586 10.1745M4.57848 10.8376L3.36575 12.1419C3.13735 12.3875 3.04732 12.7313 3.126 13.0574L3.432 14.3255C3.51043 14.6505 3.74607 14.9148 4.05998 15.0298L5.72624 15.6405C5.96908 15.7345 6.17888 15.8873 6.33766 16.0797M4.57848 10.8376C4.75451 10.6512 4.87126 10.4199 4.92586 10.1745M6.33766 16.0797C6.49536 16.2726 6.60278 16.5055 6.64445 16.7577M6.33766 16.0797C6.4968 16.2726 6.60457 16.5049 6.64445 16.7577M6.33766 16.0797L6.33514 16.0769C6.32473 16.0643 6.31359 16.0511 6.30281 16.0389M6.64445 16.7577L6.92822 18.5008C6.98148 18.828 7.19344 19.1075 7.49411 19.2471L8.74235 19.8267C9.03342 19.9618 9.37166 19.9491 9.65172 19.7924L11.2172 18.9166M11.2172 18.9166C11.4431 18.7896 11.6953 18.726 11.9475 18.7257M11.2172 18.9166C11.3066 18.8657 11.4004 18.825 11.4966 18.7946C11.6429 18.7482 11.7952 18.7254 11.9475 18.7257M11.9475 18.7257C12.0786 18.726 12.2097 18.7433 12.3376 18.7776C12.4565 18.8094 12.5722 18.8558 12.6818 18.9166M11.9475 18.7257C12.2007 18.7253 12.4544 18.789 12.6818 18.9166M12.6818 18.9166L14.3234 19.8053C14.6047 19.9575 14.9418 19.9661 15.2304 19.8282L16.4729 19.2348C16.7725 19.0917 16.9815 18.8093 17.0308 18.4809L17.2847 16.7898M17.2847 16.7898C17.3245 16.5362 17.4305 16.3015 17.5878 16.1069M17.2847 16.7898C17.3231 16.5356 17.4298 16.3013 17.5878 16.1069M17.5878 16.1069C17.7441 15.9142 17.9514 15.7607 18.1928 15.6658M17.5878 16.1069C17.7438 15.9135 17.9503 15.7595 18.1928 15.6658M18.1928 15.6658L19.8786 15.0051C20.1866 14.8844 20.4149 14.6192 20.4886 14.2968L20.7826 13.0095C20.8561 12.6878 20.7662 12.3507 20.5424 12.1083L19.3208 10.7856M19.3208 10.7856C19.1426 10.5971 19.0183 10.3719 18.958 10.1325M19.3208 10.7856C19.2371 10.6976 19.1653 10.6013 19.1067 10.4992C19.0399 10.3833 18.9899 10.26 18.958 10.1325M18.958 10.1325C18.8987 9.89485 18.9023 9.64302 18.9774 9.39927L19.5048 7.7087C19.6052 7.3869 19.5367 7.03618 19.3226 6.77579L18.4736 5.74316C18.2673 5.49227 17.952 5.35719 17.6281 5.38092L15.8093 5.51415M15.8093 5.51415C15.5499 5.53246 15.2948 5.48305 15.0678 5.37677M15.8093 5.51415C15.5495 5.53351 15.2948 5.48371 15.0678 5.37677M15.0678 5.37677C14.8393 5.26912 14.6389 5.10359 14.4898 4.89256M15.0678 5.37677C14.839 5.26952 14.6382 5.10442 14.4898 4.89256M4.92586 10.1745L4.92658 10.1708M14.8361 11.5329C14.8361 13.1225 13.5184 14.4111 11.8932 14.4111C10.2681 14.4111 8.95038 13.1225 8.95038 11.5329C8.95038 9.94321 10.2681 8.65458 11.8932 8.65458C13.5184 8.65458 14.8361 9.94321 14.8361 11.5329Z" stroke="#575672" stroke-width="1.8"/>
</svg>
