<svg width="24" height="24" viewBox="0 0 24 24" fill="none" xmlns="http://www.w3.org/2000/svg">
<path fill-rule="evenodd" clip-rule="evenodd" d="M11 5.08062V14C11 14.5523 11.4477 15 12 15C12.5523 15 13 14.5523 13 14V5.08062L16.3753 7.78087C16.8066 8.12588 17.4359 8.05596 17.7809 7.62469C18.1259 7.19343 18.056 6.56414 17.6247 6.21913L12.937 2.46901C12.8787 2.42232 12.8177 2.3806 12.7547 2.34386C12.5713 2.13318 12.3012 2 12 2C11.6988 2 11.4287 2.13318 11.2453 2.34386C11.1823 2.3806 11.1213 2.42232 11.063 2.46901L6.3753 6.21913C5.94404 6.56414 5.87412 7.19343 6.21913 7.62469C6.56414 8.05596 7.19343 8.12588 7.62469 7.78087L11 5.08062ZM4 14C4.55228 14 5 14.4477 5 15V19H19V15C19 14.4477 19.4477 14 20 14C20.5523 14 21 14.4477 21 15V19.5C21 20.3284 20.3284 21 19.5 21H4.5C3.67157 21 3 20.3284 3 19.5V15C3 14.4477 3.44772 14 4 14Z" fill="#575672"/>
</svg>
