<svg width="32" height="33" viewBox="0 0 32 33" fill="none" xmlns="http://www.w3.org/2000/svg">
<rect y="0.5" width="32" height="32" rx="16" fill="#E7EAFD"/>
<path fill-rule="evenodd" clip-rule="evenodd" d="M20.8002 13.3C20.8002 15.951 18.6512 18.1 16.0002 18.1C13.3492 18.1 11.2002 15.951 11.2002 13.3C11.2002 10.649 13.3492 8.5 16.0002 8.5C18.6512 8.5 20.8002 10.649 20.8002 13.3ZM19.2002 13.3C19.2002 15.0673 17.7675 16.5 16.0002 16.5C14.2329 16.5 12.8002 15.0673 12.8002 13.3C12.8002 11.5327 14.2329 10.1 16.0002 10.1C17.7675 10.1 19.2002 11.5327 19.2002 13.3Z" fill="#96A6F7"/>
<path d="M16.0002 20.5C10.8207 20.5 6.40761 23.5627 4.72656 27.8536C5.13608 28.2603 5.56747 28.6449 6.01883 29.0056C7.27062 25.0662 11.1976 22.1 16.0002 22.1C20.8028 22.1 24.7298 25.0662 25.9816 29.0057C26.4329 28.6449 26.8643 28.2603 27.2738 27.8536C25.5928 23.5627 21.1797 20.5 16.0002 20.5Z" fill="#96A6F7"/>
</svg>
